:FULLY-SPECIFIED
:FORCE-ALL-JOINTS-BE-3DOF
:DEGREES
1053
root 1.20402 15.1589 32.5454 4.89718 -3.42732 3.47209
lfemur 8.75062 0.490999 5.64998
ltibia 0.0511868 -0 0
lfoot -30.3926 -11.2133 -0.000124621
ltoes -34.1961 0 0
rfemur -31.118 -15.7005 -6.30798
rtibia 50.0381 -0 0
rfoot -21.8713 5.46271 -9.95208e-07
rtoes -40.9729 0 0
lowerback -1.80589 -0.0543206 -0.238328
upperback -0.487007 -0.0358795 -6.05018
thorax 0.509068 -0.0198653 -6.13788
lowerneck -6.98184 0.765186 6.56746
upperneck 1.25275 0.338066 3.64663
head 1.57933 0.293599 0.0466429
lclavicle -5.29112e-15 4.69383e-14 1.21706e-31
lhumerus -58.7088 -46.8349 115.395
lradius 55.8019 -0 0
lwrist 25.5174 0 0
lhand 37.4131 25.3178 -2.36463e-06
lfingers 7.12502 -0 0
lthumb 60.2184 38.8667 -4.39076e-06
rclavicle -5.29112e-15 4.69383e-14 1.21706e-31
rhumerus 2.19411 -23.5482 0.592773
rradius 27.4901 -0 0
rwrist -9.75642 0 0
rhand -30.5298 -42.0797 -1.12036e-05
rfingers 7.12502 -0 0
rthumb -3.82903 -72.0254 -1.09982e-05
1054
root 1.20521 15.1592 32.548 4.89928 -3.43011 3.46515
lfemur 8.73084 0.496136 5.64158
ltibia 0.111267 -0 0
lfoot -30.4271 -11.1984 -0.000262579
ltoes -34.1995 0 0
rfemur -31.1029 -15.6886 -6.30852
rtibia 50.026 -0 0
rfoot -21.8701 5.45941 -2.09691e-06
rtoes -40.9679 0 0
lowerback -1.8126 -0.0552246 -0.24358
upperback -0.488182 -0.0368421 -6.0451
thorax 0.51154 -0.0203328 -6.12952
lowerneck -6.98553 0.764538 6.56131
upperneck 1.26155 0.336867 3.64905
head 1.58281 0.293375 0.0484127
lclavicle -4.73519e-15 4.60346e-14 2.56435e-31
lhumerus -58.7034 -46.8318 115.399
lradius 55.7983 -0 0
lwrist 25.5182 0 0
lhand 37.4167 25.315 -4.9823e-06
lfingers 7.12502 -0 0
lthumb 60.2214 38.8607 -9.25138e-06
rclavicle -4.73519e-15 4.60346e-14 2.56435e-31
rhumerus 2.19326 -23.5353 0.589908
rradius 27.4921 -0 0
rwrist -9.74189 0 0
rhand -30.5358 -42.072 -2.36061e-05
rfingers 7.12502 -0 0
rthumb -3.83487 -72.0176 -2.31733e-05
1055
root 1.20679 15.1596 32.5514 4.90206 -3.43381 3.45596
lfemur 8.70464 0.502936 5.63045
ltibia 0.190869 -0 0
lfoot -30.4728 -11.1786 -0.000431533
ltoes -34.2041 0 0
rfemur -31.083 -15.6728 -6.30922
rtibia 50.01 -0 0
rfoot -21.8684 5.45503 -3.44614e-06
rtoes -40.9612 0 0
lowerback -1.8215 -0.0564231 -0.250537
upperback -0.489739 -0.0381174 -6.03837
thorax 0.514816 -0.0209529 -6.11843
lowerneck -6.99041 0.76368 6.55316
upperneck 1.27321 0.335279 3.65226
head 1.58743 0.293079 0.0507575
lclavicle -3.99864e-15 4.48372e-14 4.21434e-31
lhumerus -58.6962 -46.8277 115.405
lradius 55.7936 -0 0
lwrist 25.5192 0 0
lhand 37.4214 25.3114 -8.18809e-06
lfingers 7.12502 -0 0
lthumb 60.2254 38.8528 -1.5204e-05
rclavicle -3.99864e-15 4.48372e-14 4.21434e-31
rhumerus 2.19213 -23.5181 0.586113
rradius 27.4946 -0 0
rwrist -9.72263 0 0
rhand -30.5438 -42.0619 -3.87951e-05
rfingers 7.12502 -0 0
rthumb -3.84261 -72.0073 -3.80839e-05
1056
root 1.2087 15.16 32.5556 4.90543 -3.4383 3.44482
lfemur 8.67286 0.511175 5.61694
ltibia 0.287389 -0 0
lfoot -30.5282 -11.1547 -0.000615255
ltoes -34.2096 0 0
rfemur -31.0587 -15.6537 -6.31007
rtibia 49.9906 -0 0
rfoot -21.8664 5.44973 -4.91329e-06
rtoes -40.9532 0 0
lowerback -1.83229 -0.0578778 -0.258974
upperback -0.491627 -0.0396635 -6.03021
thorax 0.518787 -0.0217056 -6.105
lowerneck -6.99633 0.762639 6.54328
upperneck 1.28734 0.333351 3.65615
head 1.59302 0.29272 0.0536006
lclavicle -3.10555e-15 4.33853e-14 6.00854e-31
lhumerus -58.6875 -46.8227 115.412
lradius 55.7878 -0 0
lwrist 25.5205 0 0
lhand 37.4271 25.3069 -1.16741e-05
lfingers 7.12502 -0 0
lthumb 60.2303 38.8431 -2.16769e-05
rclavicle -3.10555e-15 4.33853e-14 6.00854e-31
rhumerus 2.19076 -23.4973 0.581511
rradius 27.4978 -0 0
rwrist -9.69927 0 0
rhand -30.5535 -42.0496 -5.53116e-05
rfingers 7.12502 -0 0
rthumb -3.85199 -71.9948 -5.42975e-05
